<?xml version="1.0" ?><!DOCTYPE svg  PUBLIC '-//W3C//DTD SVG 1.1//EN'  'http://www.w3.org/Graphics/SVG/1.1/DTD/svg11.dtd'><svg enable-background="new 0 0 512 512" id="Layer_1" version="1.1" viewBox="0 0 512 512" xml:space="preserve" xmlns="http://www.w3.org/2000/svg" xmlns:xlink="http://www.w3.org/1999/xlink"><g><path d="M48.8,257.5c0-40.3,0.1-80.7-0.1-121c0-4.2,1.4-6.5,4.9-8.6c65.9-40,131.8-80,197.5-120.3c4.4-2.7,7.3-2.4,11.5,0.1   c66,40.4,132.2,80.6,198.3,120.8c2.8,1.7,3.9,3.4,3.9,6.7c-0.1,81.3-0.1,162.7,0,244c0,3.5-1.3,5.3-4.1,7   c-66.9,40.6-133.7,81.3-200.5,122.1c-3.1,1.9-5,1.1-7.6-0.4c-66.7-40.6-133.3-81.3-200.1-121.8c-3-1.8-3.9-3.8-3.9-7.1   C48.9,338.5,48.8,298,48.8,257.5z M61.8,257.5c0,38,0,76-0.1,114c0,3.3,0.8,5.4,3.8,7.2c62.3,37.8,124.6,75.7,186.8,113.8   c3.3,2,5.6,1.9,8.8-0.1c62.2-38,124.5-75.9,186.9-113.7c3.1-1.9,3.7-4,3.7-7.3c-0.1-76-0.1-152,0.1-228c0-3.9-1.3-5.9-4.5-7.8   C385.1,97.8,322.8,59.9,260.6,21.8c-2.9-1.8-4.8-1.6-7.6,0.1C190.6,60,128.2,98,65.7,135.9c-2.9,1.8-4,3.7-4,7.1   C61.9,181.2,61.8,219.3,61.8,257.5z"/><path d="M237.2,231.4c8.3-14,16.3-28.2,25-41.9c2.8-4.4,1.8-8.1,0.9-12.9c2,0.3,3.8,0.6,5.9,0.9c2.6-4,5.4-8.3,8.7-13.4   c1.7,3.9,2.7,7.2,4.5,10c1.7,2.6,4.3,4.6,6.3,6.6c-0.2,2.9-0.5,6.2-0.8,9.1c5.6,0.5,6-10.2,12.1-4.4c-3.1,3.5-6.1,6.8-9,9.9   c4.8,12.4,9.4,24.3,14,36.2c-0.2,0.2-0.5,0.4-0.7,0.7c-6.4-5.3-12.8-10.7-19.8-16.5c-3.7,18.1-7.2,35.7-10.7,53.2   c-0.4,0-0.7,0-1.1,0c-2-17.8-4-35.7-6.1-54.4c-9.8,6.2-19,12-28.2,17.8C237.8,232,237.5,231.7,237.2,231.4z"/><path d="M215,174c0-0.7,0.1-1.9-0.2-2c-1.4-0.7-2.9-1.1-4.4-1.7c0,0,0.1,0.1,0.1,0.1c-1.6-2.1-3.3-4.1-5.4-6.8   c1.8-0.2,3.7-0.9,4.6-0.3c2.8,1.9,5.2,4.4,7.8,6.7c1,0.9,1.9,1.9,2.9,2.8c0.4-0.4,0.8-0.7,1.3-1.1c5.4,13.7,10.7,27.3,16.1,41   c-0.2,0.2-0.4,0.3-0.6,0.5c-3.8-3.1-7.6-6.1-12.4-10c-2.3,13.4-4.6,25.9-6.5,38.4c-0.6,3.7-2.5,5.9-5.7,5.3   c-2.2-0.4-5.4-2.7-5.8-4.7c-0.6-3.3,2.2-5.3,5.7-5.3c1.3,0,2.6,0.5,4.4,0.8c-0.1-1.8-0.2-3.5-0.2-4.2c-2.8-2-4.8-3.5-6.8-4.9   l0.1,0.2c0.5-1.2,0.6-3.2,1.5-3.5c5.9-2.4,3.6-7.2,3.5-11.3c-0.1-3.3-0.7-6.5-1.3-10.7c-5.9,3.5-11.3,6.7-16.7,9.9   c-0.2-0.2-0.5-0.5-0.7-0.7c6.6-11,13.3-21.9,19.8-33c0.6-1.1,0.2-2.8,0.3-4.2C215.7,174.8,215.4,174.4,215,174z"/><path d="M333,180c6.1,15.2,11.8,29.3,17.8,44c-3.2-1.7-7.7-1.1-6.9-6.7c0.1-0.6-1.3-1.7-2.2-2.1c-1.7-0.6-3.5-0.7-5.4-1.1   c-1.7,4.4-1.3,7.9,3.9,10c1.5,0.6,2.3,2.6,4.3,5c-3,0.1-4.4,0.2-5.9,0.3c0.5,1.3,1.1,2.7,2.2,5.8c-3.6-1.1-5.9-1.8-8.3-2.5   c-4,6.3-2.7,12.2,3.9,17.3c-0.7,0.5-1.3,0.9-2,1.4c-3.5-2.4-6.9-4.8-10.4-7.2c0.2-0.5,0.4-1.1,0.7-1.6c1.3-0.1,2.6-0.2,4.1-0.3   c-1-10.3-2-20.7-3.1-31.9c-5.7,3.3-10.8,6.3-15.9,9.3c-0.3-0.2-0.5-0.3-0.8-0.5C316.8,206.4,324.6,193.7,333,180z"/><path d="M108,285.1c-0.1,6.8-7.3,14.2-14.1,14.5c-4.8,0.2-8.1-3.2-7.9-8.1c0.2-6.7,7.1-13.8,13.8-14.2   C104.7,276.9,108.1,280.2,108,285.1z"/><path d="M315.8,367.7c0.1,6.6-3.6,9-8.2,6.1c-6.8-4.4-10.7-10.8-11.1-19c-0.3-5.3,3.9-7.6,8.4-4.6   C311.5,354.7,314.6,361.3,315.8,367.7z"/><path d="M237.8,341.8c1-4.6,2.2-8,6.2-9.4c4.1-1.4,7.4,0.7,9.1,4.2c1.8,3.8,3.2,8,3.4,12.1c0.1,2.2-2.1,5.7-4.1,6.4   c-2.3,0.8-6.4,0-7.9-1.7C241.6,350.1,240,345.7,237.8,341.8z"/><path d="M286.3,360.9c-0.8,1.2-1.8,4.2-3.7,5c-1.7,0.8-5-0.1-6.7-1.4c-5.2-3.9-8-9.4-7.7-16c0.1-2.1,1.6-5.1,3.3-6   c1.5-0.8,4.6,0,6.3,1.1C283.2,347.4,285.6,353.1,286.3,360.9z"/><path d="M211,329.8c-0.1-6,3.3-10.7,7.9-10.8c4.7-0.2,8.8,4.4,9.2,10.5c0.4,6.4-2.7,11.3-7.4,11.7c-4.8,0.5-9.2-3.9-9.8-9.9   C211,330.8,211,330.3,211,329.8z"/><path d="M279.2,155.1c-5.7,0.1-10.1-4-10.1-9.4c0-5.3,4.4-9.7,9.9-9.7c5.3,0,9.7,4.1,9.9,9.2C289.1,150.6,284.8,155,279.2,155.1z"/><path d="M323,357.3c0-4.1,2.7-6.1,6.2-4c7.3,4.4,11.9,11.1,13.4,19.5c0.7,3.9-2.3,6.1-5.8,4.8C331.1,375.3,323,363.6,323,357.3z"/><path d="M366.9,374c-0.2,2.7-1.9,4-5.2,2.9c-6-2-15.5-14.8-15.5-20.9c0-3.3,1.5-4.7,4.7-3.9C356.7,353.7,367,367.2,366.9,374z"/><path d="M137.9,286.2c0,5.9-6.8,13.3-12.6,13.4c-4,0.1-6.1-2-6.3-6c-0.3-6.2,5.6-13.2,11.7-14.2   C134.7,278.7,137.9,281.7,137.9,286.2z"/><path d="M202.2,178.1c-0.3,0.9-0.5,2.3-1,2.5c-4,1.3-7.5,2.9-9.9,6.6c-0.5,0.8-2.4,0.8-2.4,0.8c-2.5,4.2-4.6,7.6-6.6,11   c0.3,0.9,0.9,2.4,1.5,4c-2.4,0.7-4.8,1.9-7.3,1.9c-1.4,0-2.9-1.7-4.4-2.7c1.1-1.4,2.2-2.8,3.6-4.5c-4.1-3.2-1.4-4.8,2.9-5.9   c-2.4-4.6,1-4.8,4-5c-1.4-5.9,3.2-3.4,5.3-4.2c0.8-3.6,6.6-6.2,13.1-5.8C201.3,177.3,201.8,177.7,202.2,178.1z"/><path d="M155.6,301.1c-4.4,0.1-6.8-2.6-6.1-7c0.9-5.5,4-9.6,9.4-11.2c2.2-0.7,5.6-0.5,7.2,0.8c1.5,1.1,2,4.4,1.8,6.7   C167.3,295.6,160.7,301,155.6,301.1z"/><path d="M385.7,367.6c0.1,3.3-1.8,3.9-4.6,3.3c-5.9-1.3-15.7-12.9-16-19.1c-0.2-3.1,1.3-4.3,4.3-3.7   C375.5,349.5,385.6,361.6,385.7,367.6z"/><path d="M123.4,262.9c4,0,6.6,2.6,6.5,6.5c-0.1,5.7-6.4,12-12,12.1c-3.9,0-6.5-2.6-6.4-6.6C111.6,268.9,117.6,262.9,123.4,262.9z"/><path d="M305.5,337.9c0,4.6-3.2,6.9-7.2,4.8c-5.6-2.9-9.1-7.7-9.7-14.1c-0.4-4.7,3.2-7,7.5-5.1C300.6,325.6,305.5,333,305.5,337.9z   "/><path d="M281.3,330.5c0,5.6-3.8,7.8-8.7,5c-4.6-2.7-7.1-7-7.6-12.2c-0.4-5.3,3.9-7.8,8.6-5.4C278,320.2,281.4,325.7,281.3,330.5z"/><path d="M196,295.7c-0.1,4.9-4,8.9-8.4,8.8c-4.5-0.2-8.2-4.4-8-9.2c0.1-4.9,4-8.9,8.5-8.8C192.5,286.7,196.1,290.9,196,295.7z"/><path d="M257.2,320.1c0,4.4-2.2,7-6,6.9c-4.9,0-9.9-5.7-10-11.3c-0.1-3.9,2.6-7.3,6-7.4C252.1,308.2,257.2,314.2,257.2,320.1z"/><path d="M234.3,308.4c0,4.6-2.8,7.7-6.8,7.7c-4.7-0.1-9.4-5.6-9.2-10.8c0.2-4.3,3.3-7.5,7.2-7.3C230.2,298.2,234.3,303,234.3,308.4   z"/><path d="M356.9,263.8c1.9,2.4,3.8,4.7,6,7.5c-1.8,0.5-2.7,0.8-3.9,1.1c1.6,3.5,4.3,7.7-3.3,6.7c0.5,1.5,1.6,3,1.2,3.9   c-0.5,1.2-2.7,2.8-3.1,2.6c-2.5-1.5-5.1-3.2-6.8-5.5c-2.3-3-1.5-5.4,3.3-5.3c-1.2-3.1-2.7-6.5,2.8-6.8c-0.9-1.8-1.6-3.4-2.7-5.5   c1.8-0.1,3.1-0.2,4.3-0.3C355.3,262.8,356.1,263.3,356.9,263.8z"/><path d="M152.3,265.5c3.7,0.1,5.3,2.6,5.4,6.1c0.2,4.8-5.8,11.3-10.6,11.8c-3.5,0.4-5.8-0.9-6.2-4.7   C140.2,272.8,146.2,265.7,152.3,265.5z"/><path d="M310.5,330c0-3.5,2.2-5,5.7-3.7c4.5,1.6,10.9,10.2,11.1,15.1c0.2,3.5-2.1,5.4-5.3,4.4C317.2,344.4,310.5,335.1,310.5,330z"/><path d="M398.9,360.4c-0.9,0.3-2.4,1.3-3.6,1c-5.1-1.1-15.8-13.5-16.3-18.5c-0.3-2.6,0.8-3.8,3.4-3.3   C387.4,340.6,399,354.2,398.9,360.4z"/><path d="M329.8,329.5c0-3.4,1.9-4.3,4.9-3.6c5,1.3,12.3,10.7,12.4,15.8c0,2.8-1,4.6-4.1,4.1C338,345,329.7,334.8,329.8,329.5z"/><path d="M184.8,278.5c-0.1,4.4-3.8,8-8,7.8c-4.1-0.1-7.5-3.7-7.6-7.9c-0.1-4.2,3.8-8.2,7.9-8.2   C181.2,270.2,184.9,274.2,184.8,278.5z"/><path d="M149.4,256.2c-0.2,5.8-8.3,12-13.4,10c-1.6-0.6-3.4-3.7-3.3-5.5c0.2-4.9,6.1-9.6,11.1-9.6   C147.5,251,149.3,252.9,149.4,256.2z"/><path d="M363.2,338.5c0,3.2-1.7,4.1-4.5,3.4c-5-1.2-12-9.5-12.3-14.5c-0.1-2.7,1-4,3.8-3.7C355.5,324.2,363.3,333.1,363.2,338.5z"/><path d="M407.3,352.5c-2.3-1-3.4-1.2-4.1-1.8c-4.3-4.7-8.6-9.4-12.7-14.4c-0.7-0.9-0.1-3,0-4.6c1.5,0.2,3.7-0.2,4.5,0.6   c4.4,4.7,8.6,9.5,12.5,14.6C408.3,347.9,407.4,350.2,407.3,352.5z"/><path d="M277.9,309.1c-0.9,0.8-2.5,3.2-4.5,3.6c-4.3,0.9-10.3-5.8-10.2-10.9c0-3,1.3-5.2,4.7-5.3   C272.4,296.4,277.7,302.2,277.9,309.1z"/><path d="M297.4,313.1c0,3.7-2.4,5.5-6,4.1c-5-1.9-8.1-5.7-9-11c-0.7-3.6,1.8-5.9,5.2-5.2C292.2,302.1,297.4,308.5,297.4,313.1z"/><path d="M211.4,283.9c0.1,4.1-2.9,7.3-7,7.4c-4.3,0.2-7.7-3-7.8-7.2c-0.1-4,3.1-7.3,7.1-7.5C207.9,276.4,211.3,279.6,211.4,283.9z"/><path d="M375.4,333.5c-0.8,0.4-2.3,1.8-3.6,1.7c-4.9-0.5-12.5-9.5-12.7-14.6c-0.1-3.3,1.5-4.1,4.4-3.4   C368,318.3,375.2,327.4,375.4,333.5z"/><path d="M258.7,299.7c-0.4,2.9-1.5,5.5-5.4,5.5c-4.5,0-9.2-4.6-9.2-9.5c0-3.4,1.5-5.8,5.3-5.9C253.8,289.7,258.6,294.6,258.7,299.7   z"/><path d="M343.3,296.9c5.9-0.1,15.4,11.1,14.3,15.7c-0.2,1-2.7,2.2-3.9,2c-4.7-0.8-11.9-9.3-11.9-14.1   C341.7,299.2,342.9,297.8,343.3,296.9z"/><path d="M239.5,289.7c0.1,3.6-1.6,5.7-5.2,6c-4.2,0.3-9.2-4.5-9.2-8.9c0-3.4,1.6-5.7,5.3-5.9C234.9,280.6,239.4,285,239.5,289.7z"/><path d="M299.9,307.5c0.2-2.6,2-4.1,5.2-3.3c4.2,0.9,10.3,8.5,9.7,12.7c-0.2,1.3-2.2,3.4-3.5,3.5   C306.9,320.6,299.8,312.9,299.9,307.5z"/><path d="M307.5,296.8c-1.3,3.8-2.7,6.3-5.6,4.3c-3.6-2.5-6.7-6-9.5-9.5c-0.7-1,0-4.2,1.1-5.1c1-0.9,4.2-0.7,5.2,0.2   C301.9,289.7,304.6,293.3,307.5,296.8z"/><path d="M331.7,318.8c-1.1,0.4-3.5,2-4.2,1.5c-3.7-3-7.2-6.4-10.3-10c-0.7-0.8-0.1-3.7,0.9-4.7c0.7-0.8,3.1-0.7,4.5-0.2   C326.7,306.7,331.9,313.9,331.7,318.8z"/><path d="M193.2,262.2c4-0.1,7.4,2.9,7.4,6.5c0,3.4-3.2,6.2-7,6.3c-4,0.1-7.4-2.9-7.3-6.5C186.2,265.1,189.4,262.3,193.2,262.2z"/><path d="M137,233.9c0.8,0.9,3.1,2.5,3.6,4.6c0.9,3.4-5.1,8.4-9.6,8.4c-2.9,0-5.4-0.9-5.5-4.4C125.4,238.4,130.4,234.1,137,233.9z"/><path d="M184.3,261c-4,0.1-7.6-2.9-7.6-6.3c0-3.3,3.4-6.1,7.2-6.2c4.1-0.1,7.6,2.8,7.6,6.3C191.4,258,188.1,260.9,184.3,261z"/><path d="M397.2,317.1c2.4,1.2,4.1,1.7,5.2,2.8c3.6,3.6,6.9,7.4,10.2,11.3c0.6,0.7,0.6,2.5,0.1,3.2c-0.5,0.6-2.2,0.9-3,0.6   c-6.3-2.8-11-7.3-13.7-13.6C395.6,320.4,396.7,318.9,397.2,317.1z"/><path d="M159.3,243.8c4.5,0,7.9,2.5,7.8,5.9c-0.1,3.3-3.7,6.1-8,5.8c-3.7-0.2-7-1.4-7.6-5.7C151.1,246.5,154.8,243.8,159.3,243.8z"/><path d="M169.2,256.8c2,0,4.5,1.5,4.8,5.4c0.3,3.6-3.8,7.3-8,7.2c-3.5-0.1-6.2-1.5-6.4-5.5C159.4,260,163.1,256.8,169.2,256.8z"/><path d="M261.9,282c1.2-0.7,3-2.4,4.9-2.6c3.8-0.4,9.4,5.2,8.8,9.1c-0.3,1.7-2.8,4.2-4.5,4.4C267.3,293.5,261.8,287.4,261.9,282z"/><path d="M319.9,299.3c-0.9,0.5-2.4,1.8-3.8,1.8c-4-0.2-10.3-6.9-10.4-10.8c-0.1-2.8,1.2-4.5,4.3-3.9   C313.8,287.1,319.8,294.1,319.9,299.3z"/><path d="M279.1,283.5c5.7-0.1,12.3,6.3,11.7,10.5c-0.2,1.4-2.7,3.3-4.2,3.3c-4,0.1-9.5-5.6-9.5-9.6   C277.1,286.2,278.6,284.6,279.1,283.5z"/><path d="M259.3,283.2c-1.2,0.9-3.1,3.1-5.3,3.5c-3.6,0.7-7.9-3.5-8-7.3c-0.1-3.7,1.8-5.6,5.5-5.5   C255.4,273.9,259.2,277.6,259.3,283.2z"/><path d="M343,318.1c-5.3-0.1-13.2-8.4-12.9-12.7c0.1-1,2-2.6,3-2.6c4.2,0.1,11.6,8,11.6,12.3C344.7,316.3,343.4,317.4,343,318.1z"/><path d="M215.2,259.6c-0.1,4.3-3.2,7-7.1,6.7c-3.7-0.3-6.4-2-6.5-6.1c-0.1-3.5,3.3-6.4,7.1-6.1C212.3,254.5,215,256.1,215.2,259.6z   "/><path d="M151.7,240.3c-4.1,0.1-7.9-2.5-7.6-5.6c0.4-4,3.4-5.4,7-5.7c3.9-0.3,7.6,2.3,7.8,5.3C159.2,237.6,155.9,240.2,151.7,240.3z   "/><path d="M241.2,279.2c-6,0-10.4-3.9-10.2-7.7c0.2-3.2,2.3-4.6,5.4-4.6c4.1,0,8.9,4.2,8.2,7.7C244.2,276.6,242,278.2,241.2,279.2z"/><path d="M385.8,327.4c-1.7-0.6-3.9-0.8-5.1-2c-3.5-3.5-6.6-7.3-9.7-11.2c-0.5-0.6-0.4-2.5,0.2-3.1c0.5-0.6,2.3-0.7,3-0.2   c6,3.5,10.5,8.3,12.7,14.9C386.5,326.3,386.2,326.9,385.8,327.4z"/><path d="M205,249.1c-0.5,3.3-3.1,5-6.9,4.8c-3.5-0.2-6-1.9-6.2-5.8c-0.1-3.2,3.1-6,6.7-6C202.2,242.3,205.1,245.1,205,249.1z"/><path d="M127.8,229c-2.4-0.2-5.6-0.3-5.9-4.4c-0.2-3,4.2-6.2,8.7-5.6c2.3,0.3,5.3,2.2,6.2,4.1C137.8,225.6,132.8,228.9,127.8,229z"/><path d="M147.5,226.3c-3.5-0.2-7-1.2-7.1-5.3c-0.1-4.1,3.4-5.4,6.9-5.3c3.5,0,7,1.1,7.1,5.3C154.5,225.2,151.1,226.2,147.5,226.3z"/><path d="M175.5,249.8c-3.1-3.4-6.5-5.4-6.8-7.8c-0.5-3.6,3.1-5.1,6.6-5.2c4-0.1,7.9,2.7,6.9,5.4   C181.2,244.7,178.5,246.5,175.5,249.8z"/><path d="M333.4,163.5c3.5,0.5,5.9,2.2,6,6c0.1,3.4-3.1,6.5-6.5,6c-3.5-0.5-6-2.5-5.8-6.3C327.3,165.7,329.8,163.8,333.4,163.5z"/><path d="M327.7,288.7c0.9,1.9,2.1,3.8,2.7,5.8c0.3,1.1,0.1,2.9-0.6,3.5c-0.7,0.6-2.8,0.8-3.5,0.2c-2.7-2.1-5.4-4.4-7.4-7.1   c-0.9-1.2-0.1-3.6-0.1-5.4c1.8,0.2,3.7,0.1,5.4,0.7c1.3,0.4,2.4,1.6,3.6,2.4L327.7,288.7z"/><path d="M168.4,235.1c-3.1-0.5-6.8-0.8-6.7-5c0-4.1,3.6-4.8,6.8-4.9c3.3,0,6.8,0.9,6.9,4.9C175.4,234.1,171.8,234.7,168.4,235.1z"/><path d="M327.9,288.9c0.3-2.1,0.6-4.2,1-6.2c2.1,0.6,4.5,0.8,6.2,2c1.8,1.2,3.4,3.2,4.5,5.2c0.7,1.2,0.2,3.1,0.2,4.7   c-1.6,0-3.5,0.6-4.6-0.1c-2.7-1.6-5-3.7-7.4-5.7C327.7,288.7,327.9,288.9,327.9,288.9z"/><path d="M368.4,309.3c-6.3-2.5-10.2-7.1-12.9-12.9c-0.3-0.6,1.1-2.9,1.8-2.9C361.7,293.4,369.6,304.1,368.4,309.3z"/><path d="M391.8,316c-5.2-0.4-13.4-7.2-14.1-11.8c-0.1-0.7,1.7-2.5,2.5-2.4C384.7,302.4,391.4,310.7,391.8,316z"/><path d="M190.5,243.9c-2.9-3.1-5.9-4.8-6.3-7c-0.6-3.6,2.6-4.9,5.9-5c3.3-0.1,6.6,1.2,6.3,4.7C196.2,238.7,193.2,240.7,190.5,243.9   z"/><path d="M129.6,203.4c2.8,2.3,5.3,3.5,6.2,5.5c1,2.3-3.5,5.4-7.8,4.7c-2.1-0.3-4-2.4-6-3.7C124.3,208,126.6,206,129.6,203.4z"/><path d="M411.9,317.7c-4.7,0.4-14-6.6-14.5-11.1c-0.1-0.7,1.7-2.3,2.5-2.2C404.5,304.7,411.6,312.9,411.9,317.7z"/><path d="M380.3,290.9c7.1,1.4,13.4,7.9,13.3,13.3C387.1,304.1,379.6,296.7,380.3,290.9z"/><path d="M209.5,228.6c-0.5,2.3-0.4,6-1.7,6.6c-2.3,1-5.8,0.9-8.2-0.2c-3.2-1.4-2.6-6.5,0.8-7.3c2.8-0.7,6.1,0.6,9.2,1   C209.7,228.8,209.5,228.6,209.5,228.6z"/><path d="M222.7,153.7c1.5,2,3.8,3.9,4.2,6.1c0.5,3.5-2.1,5.5-5.6,5.4c-3.2-0.1-5.7-2.1-5-5.4c0.5-2.2,2.7-4,4.2-6   C221.1,153.7,221.9,153.7,222.7,153.7z"/><path d="M360.1,287.4c5.1-0.2,13.5,6.2,14.3,10.8c0.1,0.6-1.6,2.3-2.3,2.2C367.8,300,360.9,292.5,360.1,287.4z"/><path d="M164.2,212.9c2.9,2.6,6.2,4.2,6.4,6.2c0.4,3.8-3.4,4.3-6.4,4.3c-3.1,0.1-6.8-0.7-6.5-4.2   C157.9,217.3,161.3,215.6,164.2,212.9z"/><path d="M352.2,291.6c-4.4,0.5-13-5.8-13.4-10.1c-0.1-0.6,1.8-2.2,2.5-2.1C345.4,279.9,351.5,287.1,352.2,291.6z"/><path d="M181.7,222.3c0.7,0,1.5-0.4,2-0.1c2.2,1.2,4.5,2.3,6.3,3.9c0.3,0.3-1.2,4-2.1,4.1c-2.7,0.4-6,0.6-8.3-0.6   c-3-1.6-2-4.5,2.4-7.5L181.7,222.3z"/><path d="M146.6,203.6c2.6,2.3,4.5,3.9,6.4,5.5c-2.2,1.3-4.4,3.6-6.5,3.6c-2.2,0-4.3-2.4-6.5-3.7C142,207.4,143.9,205.8,146.6,203.6   z"/><path d="M162.6,214.8c-2.7-2.4-4.6-4.1-6.5-5.7c2.2-1.4,4.3-3.8,6.5-3.8c2.1,0,4.3,2.5,6.4,3.9   C167.2,210.8,165.3,212.4,162.6,214.8z"/><path d="M173.2,183.6c-0.9-1-1.8-2.1-3.7-4.1c3.6-0.6,5.8-1,8-1.3c0.6-1,1.4-3.2,2.1-3.1c2.5,0.1,5,1,7.4,1.6   c-0.1,0.7-0.1,1.4-0.2,2.1c-1.8,0.5-3.7,0.9-5.8,1.5c-0.5,5.4-4.8,3.3-8.3,3.3C172.8,183.4,173.2,183.6,173.2,183.6z"/><path d="M130.6,201.8c-2-1.6-3.8-3-5.6-4.4c1.7-1.3,3.4-3.4,5.2-3.6c2.5-0.3,5.2,0.9,7.8,1.6c0.3,0.1,0.4,2.2,0,2.5   C135.9,199.3,133.6,200.4,130.6,201.8z"/><path d="M181.8,222.2c-1.3-0.3-2.7-0.3-3.8-0.9c-1.6-0.9-2.9-2.3-4.3-3.5c1.7-1.3,3.2-3.1,5.1-3.9c1.3-0.5,3.3,0.2,4.8,0.9   c3.3,1.5,3.3,3.8,0.3,5.9c-0.8,0.5-1.5,1.1-2.3,1.6C181.7,222.3,181.8,222.2,181.8,222.2z"/><path d="M261.8,181.7c-3-0.9-6.5,1.1-6.3-4.5c0.1-3.5-1.4-7.1-2.2-10.9c2.5,0.1,5.2-1.8,5.2,3.4   C258.4,173.3,260.3,176.9,261.8,181.7z"/><path d="M409.8,301.6c-5.7,0.6-11.6-3.1-14.4-9C399.7,290.8,406.3,294.7,409.8,301.6z"/><path d="M178.5,214.7c-2.7-2.1-4.7-3.6-6.6-5c2.2-1.3,4.3-3.4,6.5-3.6c1.9-0.1,3.9,2.1,5.8,3.3C182.6,211,180.8,212.6,178.5,214.7z   "/><path d="M137.7,192.2c-2.5-2.1-4.5-3.7-6.4-5.2c2-1.1,4.1-3.2,6-3c2.3,0.2,4.4,2.3,6.6,3.6C142,188.9,140.2,190.3,137.7,192.2z"/><path d="M406.1,287.1c5.8-0.2,11.4,4.3,12.8,10.1C414,297.8,408.2,293.3,406.1,287.1z"/><path d="M433.5,305.2c-5.3,0-10.7-4.2-12.4-9.8C426.1,294.2,432.8,299.4,433.5,305.2z"/><path d="M364.4,279.4c5.4,0.5,10.3,5.2,11.4,10.9C370.4,290.8,364.2,284.8,364.4,279.4z"/><path d="M147.9,193.4c2.6,2.1,4.5,3.7,6.3,5.2c-2,1.1-4,3.2-5.9,3.2c-2.2-0.1-4.4-2-6.5-3.2C143.6,197,145.4,195.5,147.9,193.4z"/><path d="M168.2,189c1.2,1.5,2.5,3.1,3.7,4.6c-1.5,0.8-3.1,2.4-4.5,2.2c-2.4-0.3-4.7-1.6-7.1-2.5c0.6-1.2,0.9-3,1.7-3.3   c1.9-0.7,4.2-0.6,6.3-0.9C168.4,189.1,168.2,189,168.2,189z"/><path d="M163.6,195.5c2.5,2,4.3,3.3,6.1,4.7c-2,1.1-4,3-6,3c-2,0-3.9-2-5.9-3.1C159.5,198.8,161.2,197.4,163.6,195.5z"/><path d="M194.1,168.9c-3.4,0.5-6.9,1.7-8.5-3.1c-0.2-0.5-1.7-0.4-2.6-0.8c-1.7-0.7-3.3-1.5-5-2.3c0.5-1,0.7-1.6,0.8-1.6   c1.9-0.1,5.3-0.6,5.4-0.2c1.6,4.9,9,2.4,9.7,8C194,169,194.1,168.9,194.1,168.9z"/><path d="M152.2,194.4c-2.4-1.7-4.2-3-6.1-4.3c1.9-1.2,3.9-3.4,5.7-3.3c2.1,0.1,4.1,2.2,6.2,3.5   C156.2,191.5,154.5,192.7,152.2,194.4z"/><path d="M232.9,155c10.1,0,3.4,10.8,10.6,12.8C236.5,169.6,235.4,168.1,232.9,155z"/><path d="M391.8,278.6c6.1,0.6,11,4.8,11.9,10C398.3,288.6,393.2,284.4,391.8,278.6z"/><path d="M392.9,290.8c-6,0.1-11.4-3.7-12.9-8.8C385,281.5,390.2,284.9,392.9,290.8z"/><path d="M202.2,178.1c-0.4-0.4-0.8-0.8-1.2-1.2c0.1-0.9,0.1-1.9,0.2-2.8l-0.2,0.2c4.7-0.1,9.4-0.1,14.1-0.2   c0.4,0.4,0.7,0.8,1.1,1.2c-0.2,0.6-0.3,1.7-0.6,1.8C211.1,177.4,206.6,177.7,202.2,178.1z"/><path d="M374.9,282.5c-3.6-3-7.1-6-10.7-9c5.9-1.6,10.5,2,11.9,7.5C375.7,281.5,375.3,282,374.9,282.5z"/><path d="M306.5,188.9c1.2,1,2.6,2.2,4.1,3.4c-2.4,2-4.3,3.8-6.5,5.2c-0.9,0.6-2.5,0.5-3.6,0.1c-0.7-0.2-1.4-1.6-1.3-2.3   c0.1-0.6,1.5-1,2.1-1.6C303,192.3,304.5,190.8,306.5,188.9z"/><path d="M157.7,187.2c-2.2-1.8-4-3.2-5.7-4.6c1.7-0.9,3.5-2.6,5.1-2.4c2.1,0.2,3.9,2,5.9,3.1C161.5,184.5,159.9,185.6,157.7,187.2z   "/><path d="M144.1,183.5c-2.1-1.8-3.7-3.2-5.2-4.5c1.7-0.9,3.6-2.8,5.1-2.6c2.1,0.3,4,2.2,5.9,3.4C148.2,180.9,146.4,182,144.1,183.5z   "/><path d="M377.3,271c5.3-0.1,9.2,3,11.3,8.5C383.9,279.9,379.9,277,377.3,271z"/><path d="M393,269.9c2.4,2.5,4.8,5,7.9,8.2c-6.3,0.2-10.4-3-12.1-8.9c1.7,0.3,3,0.6,4.3,0.8L393,269.9z"/><path d="M373.6,273.4c-3.4-2.8-6.8-5.6-11.1-9c6-1.2,10.6,2.3,12.3,7.7C374.4,272.5,374,273,373.6,273.4z"/><path d="M173.2,183.6c0,0-0.4-0.1-0.4-0.1c0.8,1.3,1.5,2.6,2.3,3.9c-1.3,0.6-2.6,1.3-3.9,1.7c-0.9,0.3-2,0.1-3,0.1   c0,0,0.2,0.1,0.2,0.1c-1.1-0.9-2.3-1.8-3.5-2.8C166.9,182.4,170.3,183.7,173.2,183.6z"/><path d="M414.2,286c-6.3-0.4-10.3-3.8-11.2-9.2C408.3,277.9,411.3,281.1,414.2,286z"/><path d="M152.3,169.3c2.2,1.6,3.9,2.9,5.6,4.2c-1.5,0.8-3.2,2.5-4.6,2.3c-2-0.3-3.7-2-5.5-3.2C149.1,171.6,150.5,170.6,152.3,169.3   z"/><path d="M356.9,263.8c-0.8-0.5-1.6-1-2.3-1.5c-1.5-1.9-2.9-3.8-4.4-5.6c5.5-0.5,8.2,2.6,11,7.2   C359.3,263.8,358.1,263.8,356.9,263.8z"/><path d="M362.9,256.2c5.2-0.1,8.1,3,11.3,7.9C367.8,263.6,365.1,260.3,362.9,256.2z"/><path d="M170.1,177.8c-4,2.9-7.5,2.2-10.9-0.8C162.6,173.4,166.1,173.7,170.1,177.8z"/><path d="M386.4,269.3c-5.8,0.9-9.4-2.2-9.2-7.7C380.2,264.2,383.3,266.8,386.4,269.3z"/><path d="M339.1,248.2c3,2.4,6.1,4.9,9.1,7.3C342.8,256.7,339.5,254.2,339.1,248.2z"/><path d="M166.8,171.1c-3.4-0.6-7.4,0.6-10.1-5.2c3.6,0.5,6.4,0.5,8.9,1.3c0.7,0.2,0.8,2.6,1.1,4L166.8,171.1z"/><path d="M166.7,171.2c5.6-1.6,7.4-1.2,10.2,2.3c-4.3,2.5-7.3,1.7-10.1-2.5C166.8,171.1,166.7,171.2,166.7,171.2z"/><path d="M358.9,257.2c-3.1-2.2-6.1-4.5-10.1-7.3C354.5,248.9,357.9,251.2,358.9,257.2z"/><path d="M346.6,250.8c-3.1-2.3-6.2-4.6-9.3-6.8c0.6-0.8,1.1-1.5,1.7-2.3c3.1,2.3,6.2,4.6,9.2,6.9   C347.7,249.3,347.2,250.1,346.6,250.8z"/><path d="M393.1,270c-2.2-2.3-4.4-4.7-7-7.4c5-0.6,7.4,1.2,10.2,7.3c-1.3,0-2.3,0-3.3,0C393,269.9,393.1,270,393.1,270z"/><path d="M350.5,241.7c3.1,1.9,6.2,3.9,10.4,6.5c-5.8,1.1-8.9-0.8-11.1-5.3C350,242.5,350.3,242.1,350.5,241.7z"/><path d="M349.4,234.6c-0.8,0.9-2.1,2.6-2.3,2.5c-2.1-1.2-4.1-2.7-7-4.8c5.4-2.4,7.4,0,9.4,2.4L349.4,234.6z"/><path d="M378.9,256c1.6,1.8,3.2,3.5,4.9,5.3c-0.4,0.5-0.7,1-1.1,1.5c-3.1-1.9-6.2-3.8-9.2-5.7c0.2-0.5,0.4-1.1,0.6-1.6   c1.2-0.1,2.3-0.1,3.5-0.2C377.9,255.5,378.4,255.7,378.9,256z"/><path d="M351.9,228.8c-1.2,0.8-2.9,2.5-3.6,2.2c-1.6-0.8-2.7-2.6-4-4c1-0.5,2.3-1.7,3-1.4c1.7,0.8,3.2,2.2,4.7,3.4   C352,228.9,351.9,228.8,351.9,228.8z"/><path d="M349.5,234.6c1.8-0.1,3.8-0.6,5.4-0.1c1.8,0.5,3.3,1.9,4.9,2.9c0,0-0.1-0.1-0.1-0.1c0,2.1-0.7,3.4-2.9,2   C354.3,237.9,351.9,236.2,349.5,234.6C349.4,234.6,349.5,234.6,349.5,234.6z"/><path d="M359.7,237.3c0,0,0.1,0.1,0.1,0.1c0.6-0.7,1.6-2.1,1.8-2c2.5,1.5,5,3.2,7.4,4.9c-0.4,0.7-0.9,1.4-1.3,2.1   C365.1,240.7,362.4,239,359.7,237.3z"/><path d="M201.1,174c-1.9-0.2-3.9-0.2-5.7-0.7c-2.3-0.7-3.3-2.2-1.2-4.3c0,0-0.1,0.1-0.1,0.1c3.2,0.5,7.5-0.5,6.9,5.2   C200.9,174.2,201.1,174,201.1,174z"/><path d="M176.5,167.5c-3-0.6-6-1.1-9-1.7c0.1-0.7,0.2-1.4,0.4-2.1c3.3-1.5,6.4-1.2,9.1,1.5C176.8,166,176.7,166.8,176.5,167.5z"/><path d="M378.9,256c-0.5-0.2-0.9-0.5-1.4-0.7c-1.6-1.8-3.2-3.5-4.9-5.3c0.4-0.5,0.8-1.1,1.2-1.6c2.9,2,5.8,3.9,8.8,5.9   c-0.2,0.5-0.4,0.9-0.6,1.4C381,255.7,379.9,255.8,378.9,256z"/><path d="M246.6,162.9c-5.4,2-5.2-2.5-6.4-5.5C244.9,156.2,244.9,156.2,246.6,162.9z"/><path d="M193.1,176.3c-2.7-0.6-5.5-1.1-9.4-1.9c4.9-3.6,6.5-3.4,9.8,0.1C193.4,175.1,193.2,175.7,193.1,176.3z"/><path d="M362.9,248.2c2.9,1.9,5.7,3.9,8.6,5.8c-0.5,0.7-0.9,1.4-1.4,2c-2.9-1.8-5.8-3.7-8.7-5.5C361.9,249.8,362.4,249,362.9,248.2   z"/><path d="M314.4,199.6c-2.8,2.7-5.6,5.4-8.1-1c2.9-0.2,5.5-0.5,8-0.7C314.3,198.4,314.3,199,314.4,199.6z"/><path d="M176.9,168.7c3.8-2.3,5.4-1.9,8.2,1.7C181.3,172.8,179.7,172.4,176.9,168.7z"/><path d="M263.3,170.2c5.7-1.5,5.9,1.6,5,5.6C262.1,178,264.1,173,263.3,170.2z"/><path d="M194.2,164.4c3.9-1.4,7.5-1.5,9.5,3.1c0,0,0.1,0,0.1,0C199.9,168.6,196.4,168.3,194.2,164.4L194.2,164.4z"/><path d="M194.2,164.4c-1.8-1.1-3.6-2.3-5.7-3.7c3.2-2.7,5.7-2,7.8,0C196.6,161,195,163.2,194.2,164.4   C194.2,164.4,194.2,164.4,194.2,164.4z"/><path d="M369,249.6c-2.6-1.7-5.2-3.5-7.9-5.2c0.4-0.7,0.9-1.3,1.3-2c2.6,1.7,5.3,3.4,7.9,5.1C369.9,248.2,369.4,248.9,369,249.6z"/><path d="M250.8,184.5c2.5,0.7,5.1,1.4,7.6,2.1c-3.6,3.7-5.9,1.9-8.2-0.1C250.4,185.8,250.6,185.1,250.8,184.5z"/><path d="M210.4,170.3c-1.9,0.6-3.9,1.7-5.7,1.6c-3.6-0.3-3.6-2.2-1-4.4c0,0-0.1,0-0.1,0C205.9,168.5,208.2,169.4,210.4,170.3   C210.5,170.4,210.4,170.3,210.4,170.3z"/><path d="M352,228.9c0.8-0.8,2-2.3,2.4-2.2c1.7,0.8,3.2,2.1,5.2,3.6c-4.2,3.2-5.6-0.3-7.7-1.6C351.9,228.8,352,228.9,352,228.9z"/></g></svg>